<?xml version="1.0" encoding="iso-8859-1"?>
<!-- Generator: Adobe Illustrator 16.0.0, SVG Export Plug-In . SVG Version: 6.00 Build 0)  -->
<!DOCTYPE svg PUBLIC "-//W3C//DTD SVG 1.1//EN" "http://www.w3.org/Graphics/SVG/1.1/DTD/svg11.dtd">
<svg version="1.1" id="Capa_1" xmlns="http://www.w3.org/2000/svg" xmlns:xlink="http://www.w3.org/1999/xlink" x="0px" y="0px"
	 width="610.307px" height="610.307px" viewBox="0 0 610.307 610.307" style="enable-background:new 0 0 610.307 610.307;"
	 xml:space="preserve">
<g>
	<g>
		<path d="M219.089,151.308h-19.125v19.125v95.625v3.49l1.234,3.261l28.984,76.653l4.667,12.222h13.225h114.157h13.752l4.379-12.891
			l28.984-86.282l0.994-2.888v-3.127v-86.063v-19.125h-19.125H219.089L219.089,151.308z M391.214,256.495l-28.982,86.062h-28.656
			l19.939-81.071l0.172-91.054h37.529v86.063H391.214z M257.339,260.234l20.282,82.325h-29.548l-28.984-76.5v-95.625h38.25V260.234z
			 M287.461,342.559l-20.559-82.908v-89.218h77.221v89.17l-20.299,82.956H287.461L287.461,342.559z"/>
		<path d="M362.528,55.683h-21.02c2.152-4.886,3.387-10.261,3.387-15.941C344.896,17.825,327.071,0,305.153,0
			c-21.917,0-39.742,17.824-39.742,39.742c0,5.671,1.234,11.045,3.385,15.941h-21.018l-47.812,66.938h-19.125v19.125h248.625
			v-19.125h-19.125L362.528,55.683z M284.536,39.742c0-11.37,9.247-20.617,20.617-20.617c11.37,0,20.618,9.247,20.618,20.617
			c0,6.455-3.041,12.154-7.699,15.941h-25.846C287.577,51.896,284.536,46.197,284.536,39.742z"/>
		<path d="M346.95,380.809h-83.594c-8.606,0-15.577,6.971-15.577,15.576v26.221c0,8.605,6.971,15.576,15.577,15.576h13.109v172.125
			h57.375V438.184h13.109c8.605,0,15.578-6.971,15.578-15.578v-26.219C362.528,387.779,355.558,380.809,346.95,380.809z"/>
	</g>
</g>
<g>
</g>
<g>
</g>
<g>
</g>
<g>
</g>
<g>
</g>
<g>
</g>
<g>
</g>
<g>
</g>
<g>
</g>
<g>
</g>
<g>
</g>
<g>
</g>
<g>
</g>
<g>
</g>
<g>
</g>
</svg>
